<svg width="68" height="68" viewBox="0 0 68 68" fill="none" xmlns="http://www.w3.org/2000/svg">
<g id="Frame 264">
<g id="Vector">
<path d="M43.9342 54.8586C43.9342 55.0438 44.0589 55.2058 44.2379 55.2533L52.2015 57.3686C53.4754 57.707 54.7239 56.7459 54.7239 55.4269V11.9322C54.7239 10.6132 53.4754 9.65206 52.2015 9.99043L44.2379 12.1057C44.0589 12.1533 43.9342 12.3153 43.9342 12.5005V54.8586Z" fill="url(#paint0_linear_1_2229)"/>
<path d="M29.8817 58.0175C29.8817 58.1584 29.9544 58.2894 30.074 58.364L37.3517 62.9043C38.6888 63.7385 40.4211 62.7763 40.4211 61.1994V6.1599C40.4211 4.58301 38.6888 3.62085 37.3517 4.45503L30.074 8.99527C29.9544 9.06987 29.8817 9.20087 29.8817 9.34183V58.0175Z" fill="url(#paint1_linear_1_2229)"/>
<path d="M1.27539 20.6951C1.27539 20.3293 1.43481 19.9817 1.71196 19.7431L24.2958 0.306057C25.1093 -0.394049 26.3685 0.184335 26.3685 1.25805V66.6034C26.3685 67.6771 25.1093 68.2555 24.2958 67.5554L1.71196 48.1183C1.43481 47.8798 1.27539 47.5322 1.27539 47.1663V20.6951Z" fill="url(#paint2_linear_1_2229)"/>
</g>
<ellipse id="Ellipse 27" cx="4.58106" cy="9.51452" rx="4.58106" ry="9.51452" transform="matrix(-1 0 0 1 16.6667 24.7166)" fill="white"/>
</g>
<defs>
<linearGradient id="paint0_linear_1_2229" x1="1.27539" y1="33.9307" x2="54.7239" y2="33.8866" gradientUnits="userSpaceOnUse">
<stop stop-color="#6936D3"/>
<stop offset="1" stop-color="#F16F6F"/>
</linearGradient>
<linearGradient id="paint1_linear_1_2229" x1="1.27539" y1="33.9307" x2="54.7239" y2="33.8866" gradientUnits="userSpaceOnUse">
<stop stop-color="#6936D3"/>
<stop offset="1" stop-color="#F16F6F"/>
</linearGradient>
<linearGradient id="paint2_linear_1_2229" x1="1.27539" y1="33.9307" x2="54.7239" y2="33.8866" gradientUnits="userSpaceOnUse">
<stop stop-color="#6936D3"/>
<stop offset="1" stop-color="#F16F6F"/>
</linearGradient>
</defs>
</svg>
