<svg width="30" height="17" viewBox="0 0 30 17" fill="none" xmlns="http://www.w3.org/2000/svg">
<g id="logo_hub">
<rect id="Rectangle 390" x="0.657895" y="1.31701" width="28.6842" height="14.366" rx="7.18301" stroke="url(#paint0_linear_557_124)" stroke-width="1.31579"/>
<path id="hub" d="M12.0373 11.9124H12.136V11.8137V8.71139C12.136 8.22212 12.0436 7.79824 11.854 7.44365C11.6716 7.09071 11.4158 6.82156 11.0867 6.63976C10.7654 6.45878 10.4001 6.36953 9.99333 6.36953C9.6512 6.36953 9.33287 6.43231 9.03954 6.55898L9.03954 6.55897L9.0388 6.5593C8.83341 6.65001 8.65228 6.76842 8.49602 6.91452V4.75003V4.65135H8.39733H7.33333H7.23465V4.75003V11.8137V11.9124H7.33333H8.39733H8.49602V11.8137V8.87367C8.49602 8.41786 8.60737 8.08598 8.81501 7.86214C9.02998 7.63075 9.3195 7.5119 9.69467 7.5119C10.0699 7.5119 10.3557 7.63075 10.5641 7.86123L10.5641 7.86123L10.565 7.86214C10.7726 8.08598 10.884 8.41786 10.884 8.87367V11.8137V11.9124H10.9827H12.0373ZM17.7772 6.55412V6.45544H17.6785H16.6145H16.5158V6.55412V9.48458C16.5158 9.93957 16.4018 10.275 16.1876 10.5056L16.1875 10.5056C15.9793 10.7301 15.6932 10.8463 15.3172 10.8463C14.9414 10.8463 14.6555 10.7303 14.4473 10.5061C14.239 10.2755 14.1279 9.93988 14.1279 9.48458V6.55412V6.45544H14.0292H12.9745H12.8758V6.55412V9.64685C12.8758 10.1364 12.9684 10.5605 13.1582 10.9152L13.1582 10.9152L13.1589 10.9165C13.354 11.269 13.6192 11.5377 13.9542 11.7191L13.9549 11.7195C14.2942 11.8996 14.6743 11.9887 15.0932 11.9887C15.4115 11.9887 15.7117 11.9255 15.9925 11.7986L15.9935 11.7982C16.1936 11.7051 16.368 11.5887 16.5158 11.4486V11.8137V11.9124H16.6145H17.6785H17.7772V11.8137V6.55412ZM23.7529 10.6272L23.7532 10.6267C23.9725 10.1913 24.0811 9.70171 24.0811 9.16003C24.0811 8.61857 23.9726 8.13494 23.7528 7.71171C23.5336 7.28327 23.2322 6.95089 22.8482 6.71793C22.4648 6.48529 22.0362 6.36953 21.5651 6.36953C21.1648 6.36953 20.7975 6.45547 20.4651 6.62871C20.2338 6.74706 20.0356 6.89166 19.8717 7.06284V4.75003V4.65135H19.7731H18.7091H18.6104V4.75003V11.8137V11.9124H18.7091H19.7731H19.8717V11.8137V11.3202C20.034 11.4876 20.2289 11.6303 20.4554 11.7484L20.4561 11.7488C20.783 11.9159 21.1534 11.9983 21.5651 11.9983C22.0308 11.9983 22.4566 11.8789 22.84 11.6397L22.8404 11.6394C23.2295 11.394 23.5337 11.0558 23.7529 10.6272ZM22.5887 8.27116L22.5887 8.27118L22.5901 8.2736C22.7293 8.51678 22.801 8.81095 22.801 9.16003C22.801 9.50896 22.7293 9.81038 22.5891 10.0673L22.5883 10.0688C22.4528 10.3278 22.2721 10.5237 22.0464 10.6599C21.8252 10.7908 21.5876 10.8559 21.3317 10.8559C21.0825 10.8559 20.8445 10.791 20.6162 10.6594C20.397 10.5294 20.2162 10.3398 20.0745 10.0867C19.9404 9.82975 19.8717 9.52816 19.8717 9.17912C19.8717 8.82983 19.9405 8.5317 20.0743 8.28148C20.216 8.02821 20.3969 7.8384 20.6162 7.70841C20.8445 7.57682 21.0825 7.5119 21.3317 7.5119C21.5877 7.5119 21.8255 7.57711 22.0468 7.70813L22.0468 7.70817L22.0495 7.70966C22.2738 7.83323 22.4537 8.01905 22.5887 8.27116Z" fill="url(#paint1_linear_557_124)" stroke="url(#paint2_linear_557_124)" stroke-width="0.197368"/>
</g>
<defs>
<linearGradient id="paint0_linear_557_124" x1="-8.59886e-08" y1="8.50003" x2="29.9999" y2="8.43982" gradientUnits="userSpaceOnUse">
<stop stop-color="#6936D3"/>
<stop offset="1" stop-color="#F16F6F"/>
</linearGradient>
<linearGradient id="paint1_linear_557_124" x1="7.33333" y1="8.3248" x2="23.9823" y2="8.28413" gradientUnits="userSpaceOnUse">
<stop stop-color="#6936D3"/>
<stop offset="1" stop-color="#F16F6F"/>
</linearGradient>
<linearGradient id="paint2_linear_557_124" x1="7.33333" y1="8.3248" x2="23.9823" y2="8.28413" gradientUnits="userSpaceOnUse">
<stop stop-color="#6936D3"/>
<stop offset="1" stop-color="#F16F6F"/>
</linearGradient>
</defs>
</svg>
