<svg width="30" height="30" viewBox="0 0 30 30" fill="none" xmlns="http://www.w3.org/2000/svg">
<g id="ic-linkedin">
<rect width="30" height="30" rx="15" fill="white"/>
<path id="ic-linkedin_2" fill-rule="evenodd" clip-rule="evenodd" d="M15 30C23.2843 30 30 23.2843 30 15C30 6.71573 23.2843 0 15 0C6.71573 0 0 6.71573 0 15C0 23.2843 6.71573 30 15 30ZM11.1279 10.1279C10.8129 10.443 10.3856 10.62 9.94 10.62C9.01 10.62 8.25 9.87 8.25 8.94C8.25 8.49178 8.42805 8.06193 8.74499 7.74499C9.06193 7.42805 9.49178 7.25 9.94 7.25C10.87 7.25 11.62 8.01 11.62 8.94C11.62 9.38556 11.443 9.81288 11.1279 10.1279ZM21.56 20.56V15.26C21.56 14.3954 21.2165 13.5662 20.6052 12.9548C19.9938 12.3435 19.1646 12 18.3 12C17.45 12 16.46 12.52 15.98 13.3V12.19H13.19V20.56H15.98V15.63C15.98 14.86 16.6 14.23 17.37 14.23C17.7413 14.23 18.0974 14.3775 18.3599 14.6401C18.6225 14.9026 18.77 15.2587 18.77 15.63V20.56H21.56ZM11.33 20.56V12.19H8.56V20.56H11.33Z" fill="url(#paint0_linear_557_152)"/>
</g>
<defs>
<linearGradient id="paint0_linear_557_152" x1="-8.59886e-08" y1="15" x2="30" y2="14.9685" gradientUnits="userSpaceOnUse">
<stop stop-color="#6936D3"/>
<stop offset="1" stop-color="#F16F6F"/>
</linearGradient>
</defs>
</svg>
