<svg width="36" height="36" viewBox="0 0 36 36" fill="none" xmlns="http://www.w3.org/2000/svg">
<g id="Frame 1321314941" clip-path="url(#clip0_1_2262)">
<g id="Vector">
<path fill-rule="evenodd" clip-rule="evenodd" d="M3.23901 30.0859V31.2274C3.23901 32.3145 4.06974 32.9016 5.09449 32.5387L27.9233 24.4546C28.9481 24.0917 29.7788 22.9163 29.7788 21.8292V20.6877L3.23901 30.0859ZM4.18211 12.3801C3.59939 12.9356 3.23901 13.7181 3.23901 14.4281V16.4221L29.7788 7.02386V5.03117C29.7788 4.32052 29.4177 3.79292 28.8341 3.65078L17.4051 0.867342C16.8392 0.729505 16.1477 0.974748 15.582 1.51391L4.18211 12.3801Z" fill="#723ACD"/>
<path d="M3.23901 30.0859L29.7788 20.6877V7.02386L3.23901 16.4221V30.0859Z" fill="#723ACD"/>
</g>
<g id="Vector_2" filter="url(#filter0_d_1_2262)">
<path fill-rule="evenodd" clip-rule="evenodd" d="M7.46021 33.2519L34 23.8536V10.1899L7.46021 19.5881V33.2519ZM12.9334 18.874C12.2187 19.1271 11.6392 19.947 11.6392 20.7053V29.1749C11.6392 29.9332 12.2187 30.3427 12.9334 30.0896C13.6482 29.8365 14.2277 29.0165 14.2277 28.2583V19.7887C14.2277 19.0304 13.6482 18.6209 12.9334 18.874ZM20.8392 16.0744C20.1331 16.3245 19.5606 17.1345 19.5606 17.8837V26.3863C19.5606 27.1355 20.1331 27.5401 20.8392 27.29C21.5454 27.0399 22.1179 26.2299 22.1179 25.4807V16.9781C22.1179 16.2289 21.5454 15.8244 20.8392 16.0744ZM28.4955 13.3632C27.7808 13.6163 27.2013 14.4362 27.2013 15.1945V23.6641C27.2013 24.4224 27.7808 24.8319 28.4955 24.5787C29.2103 24.3256 29.7898 23.5057 29.7898 22.7474V14.2779C29.7898 13.5196 29.2103 13.1101 28.4955 13.3632Z" fill="url(#paint0_linear_1_2262)"/>
<path fill-rule="evenodd" clip-rule="evenodd" d="M7.46021 33.2519V34.3934C7.46021 35.4805 8.29093 36.0676 9.31568 35.7047L32.1445 27.6206C33.1693 27.2577 34 26.0823 34 24.9952V23.8536L7.46021 33.2519ZM8.4033 15.5461C7.82058 16.1016 7.46021 16.8841 7.46021 17.5941V19.5881L34 10.1899V8.19717C34 7.48652 33.6389 6.95891 33.0553 6.81677L21.6263 4.03334C21.0603 3.8955 20.3688 4.14074 19.8032 4.67991L8.4033 15.5461Z" fill="url(#paint1_linear_1_2262)"/>
</g>
<path id="Vector_3" fill-rule="evenodd" clip-rule="evenodd" d="M12.9335 18.8738C12.2187 19.1269 11.6393 19.9468 11.6393 20.7051V29.1747C11.6393 29.9329 12.2187 30.3425 12.9335 30.0893C13.6483 29.8362 14.2278 29.0163 14.2278 28.258V19.7885C14.2278 19.0302 13.6483 18.6207 12.9335 18.8738ZM20.8393 16.0742C20.1331 16.3243 19.5607 17.1343 19.5607 17.8834V26.3861C19.5607 27.1352 20.1331 27.5398 20.8393 27.2897C21.5455 27.0397 22.118 26.2296 22.118 25.4805V16.9779C22.118 16.2287 21.5455 15.8241 20.8393 16.0742ZM28.4956 13.363C27.7808 13.6161 27.2014 14.436 27.2014 15.1943V23.6638C27.2014 24.4221 27.7808 24.8316 28.4956 24.5785C29.2104 24.3254 29.7899 23.5055 29.7899 22.7472V14.2776C29.7899 13.5193 29.2104 13.1098 28.4956 13.363Z" fill="#FFFFFE"/>
</g>
<defs>
<filter id="filter0_d_1_2262" x="-12.5398" y="-6.00439" width="66.5398" height="71.8164" filterUnits="userSpaceOnUse" color-interpolation-filters="sRGB">
<feFlood flood-opacity="0" result="BackgroundImageFix"/>
<feColorMatrix in="SourceAlpha" type="matrix" values="0 0 0 0 0 0 0 0 0 0 0 0 0 0 0 0 0 0 127 0" result="hardAlpha"/>
<feOffset dy="10"/>
<feGaussianBlur stdDeviation="10"/>
<feColorMatrix type="matrix" values="0 0 0 0 0.160784 0 0 0 0 0.188235 0 0 0 0 0.301961 0 0 0 0.05 0"/>
<feBlend mode="normal" in2="BackgroundImageFix" result="effect1_dropShadow_1_2262"/>
<feBlend mode="normal" in="SourceGraphic" in2="effect1_dropShadow_1_2262" result="shape"/>
</filter>
<linearGradient id="paint0_linear_1_2262" x1="32.5" y1="1" x2="20.7569" y2="35.8211" gradientUnits="userSpaceOnUse">
<stop stop-color="#6936D3"/>
<stop offset="1" stop-color="#F16F6F"/>
</linearGradient>
<linearGradient id="paint1_linear_1_2262" x1="32.5" y1="1" x2="20.7569" y2="35.8211" gradientUnits="userSpaceOnUse">
<stop stop-color="#6936D3"/>
<stop offset="1" stop-color="#F16F6F"/>
</linearGradient>
<clipPath id="clip0_1_2262">
<rect width="36" height="36" fill="white"/>
</clipPath>
</defs>
</svg>
