<svg width="68" height="68" viewBox="0 0 68 68" fill="none" xmlns="http://www.w3.org/2000/svg">
<g id="Frame 1321314924">
<g id="Vector">
<path d="M12.3637 31.4786C12.3637 30.1723 13.1849 29.0071 14.4151 28.5678L51.506 15.321C53.5189 14.6021 55.6365 16.0944 55.6365 18.2319V39.4858C55.6365 40.7921 54.8153 41.9573 53.5851 42.3966L16.4942 55.6434C14.4813 56.3623 12.3637 54.87 12.3637 52.7325V31.4786Z" fill="url(#paint0_linear_1_2237)"/>
<path d="M24.7272 39.4587C24.7272 38.1524 25.5484 36.9872 26.7785 36.5479L63.8694 23.3011C65.8824 22.5822 67.9999 24.0745 67.9999 26.2119V47.4659C67.9999 48.7722 67.1788 49.9374 65.9486 50.3767L28.8577 63.6235C26.8448 64.3424 24.7272 62.8501 24.7272 60.7126V39.4587Z" fill="url(#paint1_linear_1_2237)"/>
<path d="M0 20.4809C0 19.1746 0.821164 18.0094 2.05132 17.5701L39.1422 4.32331C41.1552 3.6044 43.2727 5.09669 43.2727 7.23415V28.4881C43.2727 29.7944 42.4516 30.9596 41.2214 31.3989L4.1305 44.6457C2.11756 45.3646 0 43.8723 0 41.7348V20.4809Z" fill="url(#paint2_linear_1_2237)"/>
</g>
<path id="Vector_2" d="M43.2729 18.2607V28.4873C43.2729 29.7935 42.4517 30.9588 41.2215 31.3981L12.3638 41.7045V31.4779C12.3638 30.1717 13.1849 29.0064 14.4151 28.5671L43.2729 18.2607Z" fill="white"/>
<path id="Vector_3" d="M55.6364 26.241V39.4853C55.6364 40.7915 54.8152 41.9568 53.5851 42.3961L24.7273 52.7025V39.4582C24.7273 38.1519 25.5485 36.9867 26.7786 36.5473L55.6364 26.241Z" fill="white"/>
</g>
<defs>
<linearGradient id="paint0_linear_1_2237" x1="17" y1="13.2834" x2="52.6458" y2="56.8033" gradientUnits="userSpaceOnUse">
<stop stop-color="#6936D3"/>
<stop offset="1" stop-color="#F16F6F"/>
</linearGradient>
<linearGradient id="paint1_linear_1_2237" x1="17" y1="13.2834" x2="52.6458" y2="56.8033" gradientUnits="userSpaceOnUse">
<stop stop-color="#6936D3"/>
<stop offset="1" stop-color="#F16F6F"/>
</linearGradient>
<linearGradient id="paint2_linear_1_2237" x1="17" y1="13.2834" x2="52.6458" y2="56.8033" gradientUnits="userSpaceOnUse">
<stop stop-color="#6936D3"/>
<stop offset="1" stop-color="#F16F6F"/>
</linearGradient>
</defs>
</svg>
