<svg width="68" height="68" viewBox="0 0 68 68" fill="none" xmlns="http://www.w3.org/2000/svg">
<g id="Frame 1321314943">
<path id="Union" fill-rule="evenodd" clip-rule="evenodd" d="M34.3992 17.1842L25.4052 7.7372C24.3262 6.60388 24.3703 4.81045 25.5036 3.73147C26.199 3.06935 27.1431 2.83013 28.0181 3.00601C28.109 2.99491 28.2011 2.99905 28.2936 3.01954L33.3334 5C33.7021 5.33774 35.4699 7.05141 35.3066 8.93421C35.1967 10.2007 36.579 11.2324 37.2204 11.7111C37.5325 11.9441 37.6692 12.0461 37.3731 11.9805L37.2413 11.9512L40.2506 15.1121L43.9255 13.8108C46.695 12.83 49.475 15.2474 48.8882 18.1263L43.0048 46.9929L42.2697 50C42.2697 50 42 52 38.5 53.1083L19 60C17.0644 60.6855 15 60.5 13.5 58L12.4952 56.3668L1.81525 33.09C0.889374 31.072 1.89495 28.6946 3.98781 27.9534L7.3712 26.7553C7.38121 26.7167 7.39208 26.6781 7.40382 26.6395L12.7539 9.06069C13.2095 7.56368 14.7924 6.71946 16.2894 7.17507C16.3887 7.20527 16.4851 7.24043 16.5784 7.28019C18.3378 7.92369 21.4551 9.12172 21.8334 9.5C22.2334 9.9 19.5612 10.4737 18.1751 10.7106L14.0071 24.4054L34.3992 17.1842Z" fill="#723ACC"/>
<path id="Union_2" fill-rule="evenodd" clip-rule="evenodd" d="M30.4052 9.7372L39.3992 19.1842L19.0071 26.4054L23.1751 12.7106C23.6307 11.2136 22.7864 9.63068 21.2894 9.17507C19.7924 8.71946 18.2095 9.56368 17.7539 11.0607L12.4038 28.6395C12.3921 28.6781 12.3812 28.7167 12.3712 28.7553L8.98781 29.9534C6.89495 30.6946 5.88937 33.072 6.81525 35.09L17.4952 58.3668L18.5 60C20 62.5 22.0644 62.6855 24 62L43.5 55.1083C47 54 47.2697 52 47.2697 52L48.0048 48.9929L53.8882 20.1263C54.475 17.2474 51.695 14.83 48.9255 15.8108L45.2506 17.1121L34.5093 5.82987C33.4303 4.69654 31.6369 4.65249 30.5035 5.73147C29.3702 6.81045 29.3262 8.60388 30.4052 9.7372Z" fill="url(#paint0_linear_1_2245)"/>
<path id="Vector" fill-rule="evenodd" clip-rule="evenodd" d="M21.9588 33.2131C21.0336 33.5845 20.3295 34.6496 20.3862 35.5921L23.575 52.2541C23.6316 53.1967 24.4276 53.6597 25.3527 53.2883C26.2779 52.9169 26.982 51.8518 26.9253 50.9093L23.7365 34.2473C23.6799 33.3047 22.884 32.8417 21.9588 33.2131ZM32.1915 29.1057C31.2774 29.4726 30.5818 30.5248 30.6378 31.456L31.7152 49.3798C31.7712 50.311 32.5575 50.7684 33.4716 50.4015C34.3856 50.0347 35.0812 48.9824 35.0252 48.0512L33.9478 30.1274C33.8918 29.1962 33.1055 28.7388 32.1915 29.1057ZM42.1012 25.1278C41.1761 25.4992 40.472 26.5643 40.5286 27.5069L39.4897 46.6102C39.5463 47.5528 40.3423 48.0158 41.2675 47.6444C42.1926 47.273 42.8967 46.2079 42.84 45.2654L43.879 26.162C43.8223 25.2195 43.0264 24.7565 42.1012 25.1278Z" fill="#FFFFFE"/>
</g>
<defs>
<linearGradient id="paint0_linear_1_2245" x1="6.46973" y1="33.6468" x2="53.9673" y2="33.6056" gradientUnits="userSpaceOnUse">
<stop stop-color="#6936D3"/>
<stop offset="1" stop-color="#F16F6F"/>
</linearGradient>
</defs>
</svg>
